<svg width="464" height="118" viewBox="0 0 464 118" fill="none" xmlns="http://www.w3.org/2000/svg">
<path fill-rule="evenodd" clip-rule="evenodd" d="M89.3152 99.2396C100.421 89.3995 107.422 75.0294 107.422 59.0242C107.422 29.3605 83.3748 5.31323 53.711 5.31323C24.0472 5.31323 0 29.3605 0 59.0242C0 88.688 24.0472 112.735 53.711 112.735C56.6714 112.735 59.5759 112.496 62.4062 112.035L54.6144 96.3095L51.5652 89.7705L41.4218 80.3478L34.8717 66.301L22.7268 55.7477L23.1717 52.5917L26.4814 51.7855L39.1426 63.1301L46.1444 78.1456L56.6511 87.3989L68.6435 78.3094L75.9326 66.4665L76.0971 56.0701L78.908 49.4521L83.9939 47.0805L85.1233 49.5024L81.747 57.1211L81.4614 67.5739L74.694 78.9854L77.7573 85.5547L89.3152 99.2396ZM62.0761 57.301L67.5717 61.8147L69.437 59.1758L62.8304 45.0079L58.5498 26.6596L54.902 24.5276L52.6815 27.0372L57.5024 47.4924L62.0761 57.301ZM51.6886 54.6261L46.8951 50.6696L37.0135 29.4783L38.419 26.1693L41.8572 27.2197L53.6023 52.407L51.6886 54.6261ZM27.816 42.3178L39.0962 56.0753L45.5605 60.1373L46.966 56.8283L32.0304 39.0257L28.6242 38.9925L27.816 42.3178Z" fill="#3B41EF"/>
<path d="M142.517 86V26.6716H153.04V50.53H176.989V26.6716H187.603V86H176.989V59.6923H153.04V86H142.517ZM216.277 87.0886C212.165 87.0886 208.445 86.1814 205.119 84.3671C201.793 82.4923 199.162 79.8313 197.227 76.3841C195.291 72.8764 194.324 68.6732 194.324 63.7745C194.324 58.9363 195.291 54.7936 197.227 51.3464C199.222 47.8387 201.793 45.1475 204.938 43.2727C208.082 41.3374 211.378 40.3697 214.826 40.3697C218.817 40.3697 222.174 41.2769 224.895 43.0912C227.677 44.8451 229.764 47.3247 231.155 50.53C232.546 53.6748 233.241 57.3337 233.241 61.5066C233.241 62.4743 233.181 63.4419 233.06 64.4095C232.999 65.3167 232.908 66.0424 232.787 66.5867H202.307L202.125 59.5109H224.26C224.26 56.0032 223.474 53.2817 221.901 51.3464C220.39 49.4111 218.122 48.4435 215.098 48.4435C213.283 48.4435 211.53 48.9575 209.836 49.9857C208.143 50.9533 206.722 52.556 205.573 54.7936C204.484 57.0313 203.97 59.9947 204.03 63.6838C204.151 67.3125 204.847 70.2759 206.117 72.574C207.387 74.8117 209.02 76.4446 211.016 77.4727C213.072 78.5008 215.279 79.0149 217.638 79.0149C219.573 79.0149 221.387 78.7427 223.081 78.1984C224.835 77.6541 226.498 76.8981 228.07 75.9305L231.517 82.2806C229.461 83.7321 227.103 84.9114 224.442 85.8186C221.841 86.6653 219.12 87.0886 216.277 87.0886ZM248.829 86.9072C246.35 86.9072 244.354 86.4233 242.842 85.4557C241.391 84.4276 240.332 82.9761 239.667 81.1013C239.002 79.2265 238.669 76.9889 238.669 74.3883V21.9544H249.101V74.9326C249.101 76.2026 249.343 77.1098 249.827 77.6541C250.311 78.1379 250.855 78.3798 251.46 78.3798C251.702 78.3798 251.914 78.3798 252.095 78.3798C252.337 78.3194 252.639 78.2589 253.002 78.1984L254.272 86C253.728 86.3024 252.972 86.5141 252.004 86.635C251.097 86.8164 250.039 86.9072 248.829 86.9072ZM258.761 103.599V41.4583H267.379L268.105 46.1756H268.468C270.343 44.5427 272.429 43.1819 274.727 42.0934C277.026 40.9443 279.414 40.3697 281.894 40.3697C285.583 40.3697 288.728 41.3071 291.328 43.1819C293.929 45.0567 295.925 47.6875 297.316 51.0743C298.707 54.461 299.402 58.4525 299.402 63.0488C299.402 68.1289 298.495 72.4833 296.681 76.1119C294.866 79.6801 292.508 82.4016 289.605 84.2764C286.762 86.1512 283.678 87.0886 280.352 87.0886C278.356 87.0886 276.39 86.6653 274.455 85.8186C272.58 84.9114 270.736 83.7019 268.922 82.1899L269.194 89.6286V103.599H258.761ZM278.175 78.4706C280.17 78.4706 281.954 77.896 283.527 76.7469C285.099 75.5979 286.339 73.8743 287.246 71.5761C288.153 69.278 288.607 66.4658 288.607 63.1395C288.607 60.1761 288.274 57.6361 287.609 55.5194C286.944 53.4026 285.885 51.8 284.434 50.7114C283.043 49.5623 281.198 48.9878 278.9 48.9878C277.328 48.9878 275.755 49.4111 274.183 50.2578C272.611 51.044 270.948 52.2838 269.194 53.9772V74.7512C270.827 76.0817 272.399 77.0493 273.911 77.6541C275.483 78.1984 276.905 78.4706 278.175 78.4706ZM305.431 103.599V41.4583H314.049L314.774 46.1756H315.137C317.012 44.5427 319.098 43.1819 321.397 42.0934C323.695 40.9443 326.084 40.3697 328.563 40.3697C332.252 40.3697 335.397 41.3071 337.998 43.1819C340.598 45.0567 342.594 47.6875 343.985 51.0743C345.376 54.461 346.071 58.4525 346.071 63.0488C346.071 68.1289 345.164 72.4833 343.35 76.1119C341.536 79.6801 339.177 82.4016 336.274 84.2764C333.432 86.1512 330.347 87.0886 327.021 87.0886C325.025 87.0886 323.06 86.6653 321.124 85.8186C319.25 84.9114 317.405 83.7019 315.591 82.1899L315.863 89.6286V103.599H305.431ZM324.844 78.4706C326.84 78.4706 328.624 77.896 330.196 76.7469C331.768 75.5979 333.008 73.8743 333.915 71.5761C334.823 69.278 335.276 66.4658 335.276 63.1395C335.276 60.1761 334.944 57.6361 334.278 55.5194C333.613 53.4026 332.555 51.8 331.103 50.7114C329.712 49.5623 327.868 48.9878 325.57 48.9878C323.997 48.9878 322.425 49.4111 320.852 50.2578C319.28 51.044 317.617 52.2838 315.863 53.9772V74.7512C317.496 76.0817 319.068 77.0493 320.58 77.6541C322.153 78.1984 323.574 78.4706 324.844 78.4706ZM352.1 86V41.4583H360.718L361.444 47.5363H361.806C363.681 45.5406 365.737 43.8472 367.975 42.4562C370.213 41.0652 372.692 40.3697 375.414 40.3697C378.74 40.3697 381.371 41.0652 383.306 42.4562C385.241 43.8472 386.723 45.8127 387.751 48.3528C389.868 46.0546 392.075 44.1496 394.374 42.6377C396.672 41.1257 399.242 40.3697 402.084 40.3697C406.802 40.3697 410.249 41.9119 412.426 44.9963C414.664 48.0806 415.783 52.435 415.783 58.0594V86H405.35V59.4201C405.35 55.731 404.806 53.1305 403.717 51.6186C402.629 50.0461 400.905 49.2599 398.546 49.2599C397.155 49.2599 395.674 49.7135 394.101 50.6207C392.589 51.5278 390.957 52.9491 389.203 54.8843V86H378.77V59.4201C378.77 55.731 378.196 53.1305 377.047 51.6186C375.958 50.0461 374.235 49.2599 371.876 49.2599C369.094 49.2599 365.979 51.1347 362.532 54.8843V86H352.1ZM443.068 87.0886C438.955 87.0886 435.236 86.1814 431.909 84.3671C428.583 82.4923 425.952 79.8313 424.017 76.3841C422.082 72.8764 421.114 68.6732 421.114 63.7745C421.114 58.9363 422.082 54.7936 424.017 51.3464C426.013 47.8387 428.583 45.1475 431.728 43.2727C434.873 41.3374 438.169 40.3697 441.616 40.3697C445.608 40.3697 448.964 41.2769 451.686 43.0912C454.468 44.8451 456.554 47.3247 457.945 50.53C459.336 53.6748 460.032 57.3337 460.032 61.5066C460.032 62.4743 459.971 63.4419 459.85 64.4095C459.79 65.3167 459.699 66.0424 459.578 66.5867H429.097L428.916 59.5109H451.051C451.051 56.0032 450.264 53.2817 448.692 51.3464C447.18 49.4111 444.912 48.4435 441.888 48.4435C440.074 48.4435 438.32 48.9575 436.627 49.9857C434.933 50.9533 433.512 52.556 432.363 54.7936C431.274 57.0313 430.76 59.9947 430.821 63.6838C430.942 67.3125 431.637 70.2759 432.907 72.574C434.177 74.8117 435.81 76.4446 437.806 77.4727C439.862 78.5008 442.07 79.0149 444.428 79.0149C446.364 79.0149 448.178 78.7427 449.871 78.1984C451.625 77.6541 453.288 76.8981 454.861 75.9305L458.308 82.2806C456.252 83.7321 453.893 84.9114 451.232 85.8186C448.632 86.6653 445.91 87.0886 443.068 87.0886Z" fill="#3B41EF"/>
</svg>
